<?xml version="1.0" encoding="utf-8"?>
<!-- Generator: Adobe Illustrator 24.0.1, SVG Export Plug-In . SVG Version: 6.00 Build 0)  -->
<svg version="1.1"
	 id="レイヤー_1" image-rendering="optimizeQuality" text-rendering="geometricPrecision" shape-rendering="geometricPrecision" xmlns:xml="http://www.w3.org/XML/1998/namespace"
	 xmlns="http://www.w3.org/2000/svg" xmlns:xlink="http://www.w3.org/1999/xlink" x="0px" y="0px" viewBox="0 0 512 512"
	 style="enable-background:new 0 0 512 512;" xml:space="preserve">
<style type="text/css">
	.st0{fill-rule:evenodd;clip-rule:evenodd;fill:#88C613;}
	.st1{fill:#212121;}
</style>
<g>
	<g>
		<path class="st0" d="M297.5,57.1c25.3,5.3,48.8,15.2,69.7,28.9l38.2-38.2l58.7,58.7L426,144.8c13.7,20.9,23.6,44.4,28.9,69.7h54
			v83.1h-54c-5.3,25.3-15.2,48.8-28.9,69.7l38.2,38.2l-58.7,58.7L367.2,426c-20.9,13.7-44.4,23.6-69.7,28.9v54h-83.1v-54
			c-25.3-5.3-48.8-15.2-69.7-28.9l-38.2,38.2l-58.7-58.7L86,367.2c-13.7-20.9-23.6-44.4-28.9-69.7h-54v-83.1h54
			c5.3-25.3,15.2-48.8,28.9-69.7l-38.2-38.2l58.7-58.7L144.8,86c20.9-13.7,44.4-23.6,69.7-28.9v-54h83.1V57.1z"/>
	</g>
</g>
<circle class="st1" cx="125.6" cy="280.5" r="33.3"/>
<circle class="st1" cx="174.5" cy="362" r="33.3"/>
<circle class="st1" cx="256" cy="394.5" r="33.3"/>
<circle class="st1" cx="337.5" cy="362" r="33.3"/>
<circle class="st1" cx="386.4" cy="280.5" r="33.3"/>
</svg>
